<svg width="40" height="92" viewBox="0 0 40 92" fill="none" xmlns="http://www.w3.org/2000/svg">
<path fill-rule="evenodd" clip-rule="evenodd" d="M6.49106 49.155C4.47326 49.1319 2.65724 51.3341 2.87919 54.7067C3.14151 58.6715 7.20401 62.6965 7.20401 66.5271C7.20401 69.8072 -0.0667962 73.3649 0.00046379 80.1056C0.0677238 87.7854 5.65031 92 20.952 92C36.2536 92 40 86.9711 40 80.434C40 74.4197 34.3636 72.4072 34.3636 67.9104C34.3636 63.1822 38.0091 61.0263 38.6884 58.38C39.4888 55.248 36.9666 53.823 35.1035 54.3181C33.4489 54.7807 34.2022 57.7277 28.4313 57.811C25.6602 57.8526 23.6155 56.0668 23.6155 51.644C23.6155 47.2212 17.1316 46.7401 16.7415 51.0796C16.6204 52.3657 16.0285 54.8455 12.1611 54.8594C7.85644 54.864 9.06039 49.2059 6.49106 49.155Z" fill="white"/>
<path fill-rule="evenodd" clip-rule="evenodd" d="M16.5535 57.6861H23.7167L22.4724 16.2152H17.7911L16.5535 57.6861Z" fill="white"/>
<path fill-rule="evenodd" clip-rule="evenodd" d="M27.2882 11.9681C26.9141 9.30155 27.0862 6.61204 27.7994 3.97837C28.9226 0.0875742 27.4833 -2.10533 24.3557 2.92818L16.8629 15.0123C16.567 15.4749 16.076 15.6878 17.0714 16.6547C17.4369 16.9675 17.6697 17.3438 17.744 17.7419H22.5128C22.5128 17.196 23.4342 15.7433 25.1157 14.7717C26.1515 14.1703 27.3958 12.8194 27.2882 11.9681Z" fill="white"/>
<path d="M22.4675 4.00461L22.203 4.42996L24.2932 5.04497L24.5577 4.61962L22.4675 4.00461Z" fill="white"/>
<path fill-rule="evenodd" clip-rule="evenodd" d="M22.1698 4.91754L21.4433 4.70472C20.8716 4.35312 21.4433 3.45097 22.2034 3.48798L22.9231 3.7008C23.2392 3.97838 22.6742 4.88515 22.1698 4.91754Z" fill="white"/>
<path d="M21.2531 5.95786L20.9885 6.38318L23.0785 6.99844L23.3431 6.57312L21.2531 5.95786Z" fill="white"/>
<path fill-rule="evenodd" clip-rule="evenodd" d="M20.9523 6.87453L20.2259 6.65708C19.6542 6.30548 20.2259 5.40333 20.986 5.44035L21.746 5.66704C22.0218 5.93074 21.4568 6.83751 20.9523 6.87453Z" fill="white"/>
<path d="M20.0405 7.91203L19.7758 8.33733L21.8657 8.95284L22.1304 8.52755L20.0405 7.91203Z" fill="white"/>
<path fill-rule="evenodd" clip-rule="evenodd" d="M19.7282 8.8268L19.0085 8.61398C18.4368 8.26238 19.0085 7.35561 19.7618 7.39725L20.4882 7.61006C20.8111 7.88302 20.2461 8.78979 19.7282 8.8268Z" fill="white"/>
<path d="M18.8172 9.86297L18.5528 10.2884L20.6431 10.9031L20.9076 10.4777L18.8172 9.86297Z" fill="white"/>
<path fill-rule="evenodd" clip-rule="evenodd" d="M18.5242 10.7791L17.7978 10.5663C17.2261 10.2147 17.7978 9.30794 18.5579 9.34958L19.2776 9.56239C19.5937 9.83072 19.0556 10.756 18.5242 10.7791Z" fill="white"/>
<path d="M17.614 11.8143L17.3493 12.2396L19.4393 12.8549L19.704 12.4296L17.614 11.8143Z" fill="white"/>
<path fill-rule="evenodd" clip-rule="evenodd" d="M17.3068 12.7315L16.5804 12.5187C16.0087 12.1671 16.5804 11.2603 17.3405 11.3019L18.0669 11.5147C18.383 11.7877 17.8113 12.6991 17.3068 12.7315Z" fill="white"/>
<path d="M16.3948 13.7687L16.1302 14.194L18.2202 14.8093L18.4849 14.3839L16.3948 13.7687Z" fill="white"/>
<path fill-rule="evenodd" clip-rule="evenodd" d="M16.0962 14.6839L15.3698 14.4572C14.798 14.1056 15.3698 13.1988 16.1231 13.2404L16.8495 13.4532C17.1656 13.7447 16.6006 14.6515 16.0962 14.6839Z" fill="white"/>
</svg>
