<svg width="272" height="92" viewBox="0 0 272 92" fill="none" xmlns="http://www.w3.org/2000/svg">
<path d="M69.68 53.576C67.024 53.576 64.56 53.144 62.288 52.28C60.048 51.384 58.08 50.136 56.384 48.536C54.72 46.936 53.424 45.064 52.496 42.92C51.568 40.776 51.104 38.44 51.104 35.912C51.104 33.352 51.584 31 52.544 28.856C53.536 26.712 54.896 24.856 56.624 23.288C58.384 21.688 60.416 20.456 62.72 19.592C65.024 18.696 67.488 18.248 70.112 18.248C73.28 18.248 76.112 18.792 78.608 19.88C81.136 20.968 83.184 22.44 84.752 24.296L78.272 30.776C77.088 29.4 75.856 28.376 74.576 27.704C73.296 27.032 71.76 26.696 69.968 26.696C68.272 26.696 66.736 27.08 65.36 27.848C63.984 28.584 62.88 29.64 62.048 31.016C61.248 32.392 60.848 34.008 60.848 35.864C60.848 37.72 61.216 39.352 61.952 40.76C62.72 42.136 63.776 43.208 65.12 43.976C66.464 44.744 68.032 45.128 69.824 45.128C71.552 45.128 73.008 44.792 74.192 44.12C75.376 43.448 76.272 42.488 76.88 41.24C77.52 39.992 77.84 38.52 77.84 36.824L84.416 41L68.528 40.52V32.84H87.488V34.28C87.488 38.376 86.736 41.864 85.232 44.744C83.76 47.624 81.68 49.816 78.992 51.32C76.336 52.824 73.232 53.576 69.68 53.576ZM101.738 53.576C99.434 53.576 97.386 53.128 95.594 52.232C93.834 51.336 92.442 50.088 91.418 48.488C90.394 46.888 89.882 45.064 89.882 43.016V29.384H99.29V43.112C99.29 43.592 99.386 44.024 99.578 44.408C99.802 44.792 100.09 45.096 100.442 45.32C100.826 45.512 101.258 45.608 101.738 45.608C102.41 45.608 102.97 45.384 103.418 44.936C103.898 44.456 104.138 43.848 104.138 43.112V29.384H113.546V43.016C113.546 45.096 113.034 46.936 112.01 48.536C111.018 50.104 109.626 51.336 107.834 52.232C106.074 53.128 104.042 53.576 101.738 53.576ZM117.364 53V29.384H126.772V53H117.364ZM122.068 27.176C120.692 27.176 119.54 26.712 118.612 25.784C117.716 24.824 117.268 23.656 117.268 22.28C117.268 20.904 117.716 19.752 118.612 18.824C119.54 17.864 120.692 17.384 122.068 17.384C123.476 17.384 124.628 17.864 125.524 18.824C126.42 19.752 126.868 20.904 126.868 22.28C126.868 23.656 126.42 24.824 125.524 25.784C124.628 26.712 123.476 27.176 122.068 27.176ZM134.36 53V19.688H143.768V53H134.36ZM129.32 37.064V29.384H148.808V37.064H129.32ZM160.955 53.48C158.747 53.48 156.795 52.952 155.099 51.896C153.403 50.84 152.075 49.4 151.115 47.576C150.155 45.72 149.675 43.592 149.675 41.192C149.675 38.792 150.155 36.664 151.115 34.808C152.075 32.952 153.403 31.512 155.099 30.488C156.795 29.432 158.747 28.904 160.955 28.904C162.331 28.904 163.595 29.144 164.747 29.624C165.931 30.072 166.907 30.712 167.675 31.544C168.475 32.376 168.987 33.336 169.211 34.424V47.96C168.987 49.048 168.475 50.008 167.675 50.84C166.907 51.672 165.931 52.328 164.747 52.808C163.595 53.256 162.331 53.48 160.955 53.48ZM163.067 45.224C164.251 45.224 165.195 44.856 165.899 44.12C166.635 43.352 167.003 42.376 167.003 41.192C167.003 40.392 166.843 39.704 166.523 39.128C166.203 38.52 165.739 38.04 165.131 37.688C164.555 37.336 163.883 37.16 163.115 37.16C162.347 37.16 161.659 37.336 161.051 37.688C160.475 38.04 160.011 38.52 159.659 39.128C159.307 39.736 159.131 40.424 159.131 41.192C159.131 41.96 159.291 42.648 159.611 43.256C159.963 43.864 160.443 44.344 161.051 44.696C161.659 45.048 162.331 45.224 163.067 45.224ZM166.715 53V46.664L168.011 40.904L166.715 35.192V29.384H175.883V53H166.715ZM180.412 53V29.384H189.82V53H180.412ZM189.82 40.232L185.452 36.344C186.668 33.784 188.076 31.912 189.676 30.728C191.308 29.512 193.34 28.904 195.772 28.904C196.86 28.904 197.788 29.032 198.556 29.288C199.356 29.544 199.996 29.912 200.476 30.392L195.196 37.88C194.972 37.624 194.636 37.416 194.188 37.256C193.772 37.064 193.276 36.968 192.7 36.968C191.74 36.968 191.02 37.256 190.54 37.832C190.06 38.376 189.82 39.176 189.82 40.232Z" fill="white"/>
<path d="M88.36 82V67.88H91.5V82H88.36ZM94.2194 82V67.88H96.4194L97.3594 70.7V82H94.2194ZM103.959 82L95.6394 71.34L96.4194 67.88L104.739 78.54L103.959 82ZM103.959 82L103.119 79.18V67.88H106.259V82H103.959ZM112.952 82.22C111.792 82.22 110.792 82.0333 109.952 81.66C109.125 81.2733 108.365 80.6933 107.672 79.92L109.712 77.9C110.165 78.42 110.665 78.8267 111.212 79.12C111.772 79.4 112.418 79.54 113.152 79.54C113.818 79.54 114.332 79.42 114.692 79.18C115.065 78.94 115.252 78.6067 115.252 78.18C115.252 77.7933 115.132 77.48 114.892 77.24C114.652 77 114.332 76.7933 113.932 76.62C113.545 76.4467 113.112 76.28 112.632 76.12C112.165 75.96 111.698 75.78 111.232 75.58C110.765 75.3667 110.332 75.1067 109.932 74.8C109.545 74.48 109.232 74.0867 108.992 73.62C108.752 73.14 108.632 72.54 108.632 71.82C108.632 70.9533 108.838 70.2067 109.252 69.58C109.678 68.9533 110.265 68.48 111.012 68.16C111.758 67.8267 112.618 67.66 113.592 67.66C114.578 67.66 115.478 67.8333 116.292 68.18C117.118 68.5267 117.798 69 118.332 69.6L116.292 71.62C115.865 71.18 115.432 70.8533 114.992 70.64C114.565 70.4267 114.078 70.32 113.532 70.32C112.985 70.32 112.552 70.4267 112.232 70.64C111.912 70.84 111.752 71.1333 111.752 71.52C111.752 71.88 111.872 72.1733 112.112 72.4C112.352 72.6133 112.665 72.8 113.052 72.96C113.452 73.12 113.885 73.28 114.352 73.44C114.832 73.6 115.305 73.7867 115.772 74C116.238 74.2133 116.665 74.4867 117.052 74.82C117.452 75.14 117.772 75.5533 118.012 76.06C118.252 76.5533 118.372 77.1667 118.372 77.9C118.372 79.2467 117.892 80.3067 116.932 81.08C115.972 81.84 114.645 82.22 112.952 82.22ZM123.304 82V68.08H126.444V82H123.304ZM118.884 70.62V67.88H130.864V70.62H118.884ZM135.018 76.18V73.86H137.998C138.624 73.86 139.104 73.7 139.438 73.38C139.784 73.06 139.958 72.6267 139.958 72.08C139.958 71.5733 139.791 71.1533 139.458 70.82C139.124 70.4867 138.644 70.32 138.018 70.32H135.018V67.88H138.378C139.311 67.88 140.131 68.06 140.838 68.42C141.544 68.7667 142.098 69.2533 142.498 69.88C142.898 70.5067 143.098 71.2267 143.098 72.04C143.098 72.8667 142.898 73.5933 142.498 74.22C142.098 74.8333 141.538 75.3133 140.818 75.66C140.098 76.0067 139.251 76.18 138.278 76.18H135.018ZM132.618 82V67.88H135.758V82H132.618ZM140.298 82L135.898 75.92L138.778 75.14L144.018 82H140.298ZM151.032 82.22C149.872 82.22 148.846 81.9733 147.952 81.48C147.072 80.9867 146.379 80.3067 145.872 79.44C145.379 78.56 145.132 77.56 145.132 76.44V67.88H148.292V76.62C148.292 77.18 148.412 77.6667 148.652 78.08C148.892 78.4933 149.219 78.8133 149.632 79.04C150.059 79.2533 150.526 79.36 151.032 79.36C151.566 79.36 152.032 79.2533 152.432 79.04C152.832 78.8133 153.146 78.5 153.372 78.1C153.612 77.6867 153.732 77.2 153.732 76.64V67.88H156.892V76.46C156.892 77.58 156.646 78.5733 156.152 79.44C155.659 80.3067 154.972 80.9867 154.092 81.48C153.212 81.9733 152.192 82.22 151.032 82.22ZM159.395 82V67.88H161.635L167.195 76.54H166.055L171.595 67.88H173.855V82H170.715V73.18L171.275 73.32L167.655 78.96H165.575L161.975 73.32L162.515 73.18V82H159.395ZM176.563 82V67.88H179.703V82H176.563ZM178.963 82V79.28H186.703V82H178.963ZM178.963 76.1V73.48H186.003V76.1H178.963ZM178.963 70.58V67.88H186.603V70.58H178.963ZM188.868 82V67.88H191.068L192.008 70.7V82H188.868ZM198.608 82L190.288 71.34L191.068 67.88L199.388 78.54L198.608 82ZM198.608 82L197.768 79.18V67.88H200.908V82H198.608ZM207.093 82V68.08H210.233V82H207.093ZM202.673 70.62V67.88H214.653V70.62H202.673ZM222.405 82.24C221.338 82.24 220.351 82.0533 219.445 81.68C218.551 81.3067 217.765 80.7867 217.085 80.12C216.405 79.4533 215.878 78.68 215.505 77.8C215.131 76.9067 214.945 75.9467 214.945 74.92C214.945 73.88 215.131 72.92 215.505 72.04C215.878 71.16 216.398 70.3933 217.065 69.74C217.731 69.0733 218.511 68.56 219.405 68.2C220.311 67.8267 221.298 67.64 222.365 67.64C223.418 67.64 224.391 67.8267 225.285 68.2C226.191 68.56 226.978 69.0733 227.645 69.74C228.325 70.3933 228.851 71.1667 229.225 72.06C229.598 72.94 229.785 73.9 229.785 74.94C229.785 75.9667 229.598 76.9267 229.225 77.82C228.851 78.7 228.331 79.4733 227.665 80.14C226.998 80.7933 226.211 81.3067 225.305 81.68C224.411 82.0533 223.445 82.24 222.405 82.24ZM222.365 79.38C223.205 79.38 223.938 79.1933 224.565 78.82C225.205 78.4467 225.698 77.9267 226.045 77.26C226.391 76.58 226.565 75.8 226.565 74.92C226.565 74.2533 226.465 73.6533 226.265 73.12C226.065 72.5733 225.778 72.1067 225.405 71.72C225.031 71.32 224.585 71.02 224.065 70.82C223.558 70.6067 222.991 70.5 222.365 70.5C221.525 70.5 220.785 70.6867 220.145 71.06C219.518 71.42 219.031 71.9333 218.685 72.6C218.338 73.2533 218.165 74.0267 218.165 74.92C218.165 75.5867 218.265 76.1933 218.465 76.74C218.665 77.2867 218.945 77.76 219.305 78.16C219.678 78.5467 220.125 78.8467 220.645 79.06C221.165 79.2733 221.738 79.38 222.365 79.38ZM235.686 82.22C234.526 82.22 233.526 82.0333 232.686 81.66C231.859 81.2733 231.099 80.6933 230.406 79.92L232.446 77.9C232.899 78.42 233.399 78.8267 233.946 79.12C234.506 79.4 235.153 79.54 235.886 79.54C236.553 79.54 237.066 79.42 237.426 79.18C237.799 78.94 237.986 78.6067 237.986 78.18C237.986 77.7933 237.866 77.48 237.626 77.24C237.386 77 237.066 76.7933 236.666 76.62C236.279 76.4467 235.846 76.28 235.366 76.12C234.899 75.96 234.433 75.78 233.966 75.58C233.499 75.3667 233.066 75.1067 232.666 74.8C232.279 74.48 231.966 74.0867 231.726 73.62C231.486 73.14 231.366 72.54 231.366 71.82C231.366 70.9533 231.573 70.2067 231.986 69.58C232.413 68.9533 232.999 68.48 233.746 68.16C234.493 67.8267 235.353 67.66 236.326 67.66C237.313 67.66 238.213 67.8333 239.026 68.18C239.853 68.5267 240.533 69 241.066 69.6L239.026 71.62C238.599 71.18 238.166 70.8533 237.726 70.64C237.299 70.4267 236.813 70.32 236.266 70.32C235.719 70.32 235.286 70.4267 234.966 70.64C234.646 70.84 234.486 71.1333 234.486 71.52C234.486 71.88 234.606 72.1733 234.846 72.4C235.086 72.6133 235.399 72.8 235.786 72.96C236.186 73.12 236.619 73.28 237.086 73.44C237.566 73.6 238.039 73.7867 238.506 74C238.973 74.2133 239.399 74.4867 239.786 74.82C240.186 75.14 240.506 75.5533 240.746 76.06C240.986 76.5533 241.106 77.1667 241.106 77.9C241.106 79.2467 240.626 80.3067 239.666 81.08C238.706 81.84 237.379 82.22 235.686 82.22Z" fill="white"/>
<path d="M210.264 53V44.84H218.232C220.024 44.84 221.576 44.52 222.888 43.88C224.2 43.208 225.208 42.2 225.912 40.856C226.616 39.512 226.968 37.848 226.968 35.864C226.968 33.88 226.6 32.232 225.864 30.92C225.16 29.608 224.152 28.632 222.84 27.992C221.56 27.32 220.024 26.984 218.232 26.984H209.784V18.824H218.232C220.92 18.824 223.384 19.224 225.624 20.024C227.896 20.824 229.864 21.976 231.528 23.48C233.192 24.984 234.472 26.792 235.368 28.904C236.296 30.984 236.76 33.32 236.76 35.912C236.76 38.504 236.296 40.856 235.368 42.968C234.472 45.048 233.192 46.84 231.528 48.344C229.864 49.848 227.912 51 225.672 51.8C223.432 52.6 220.984 53 218.328 53H210.264ZM203.832 53V18.824H213.432V53H203.832ZM257.572 53.576C254.948 53.576 252.5 53.144 250.228 52.28C247.988 51.384 246.02 50.136 244.324 48.536C242.628 46.936 241.3 45.064 240.34 42.92C239.412 40.744 238.948 38.392 238.948 35.864C238.948 33.304 239.412 30.952 240.34 28.808C241.3 26.664 242.612 24.808 244.276 23.24C245.972 21.672 247.94 20.456 250.18 19.592C252.42 18.696 254.852 18.248 257.476 18.248C260.132 18.248 262.564 18.664 264.772 19.496C266.98 20.328 268.9 21.48 270.532 22.952L264.148 29.384C263.38 28.552 262.436 27.896 261.316 27.416C260.228 26.936 258.948 26.696 257.476 26.696C256.196 26.696 255.012 26.904 253.924 27.32C252.868 27.736 251.956 28.344 251.188 29.144C250.42 29.944 249.812 30.92 249.364 32.072C248.948 33.192 248.74 34.456 248.74 35.864C248.74 37.304 248.948 38.6 249.364 39.752C249.812 40.872 250.42 41.832 251.188 42.632C251.956 43.432 252.868 44.056 253.924 44.504C255.012 44.92 256.196 45.128 257.476 45.128C258.916 45.128 260.196 44.904 261.316 44.456C262.468 44.008 263.46 43.352 264.292 42.488L270.724 48.92C269.028 50.392 267.124 51.544 265.012 52.376C262.9 53.176 260.42 53.576 257.572 53.576Z" fill="#df932c"/>
<path fill-rule="evenodd" clip-rule="evenodd" d="M6.49106 49.155C4.47326 49.1319 2.65724 51.3341 2.87919 54.7067C3.14151 58.6715 7.20401 62.6965 7.20401 66.5271C7.20401 69.8072 -0.0667962 73.3649 0.00046379 80.1056C0.0677238 87.7854 5.65031 92 20.952 92C36.2536 92 40 86.9711 40 80.434C40 74.4197 34.3636 72.4072 34.3636 67.9104C34.3636 63.1822 38.0091 61.0263 38.6884 58.38C39.4888 55.248 36.9666 53.823 35.1035 54.3181C33.4489 54.7807 34.2022 57.7277 28.4313 57.811C25.6602 57.8526 23.6155 56.0668 23.6155 51.644C23.6155 47.2212 17.1316 46.7401 16.7415 51.0796C16.6204 52.3657 16.0285 54.8455 12.1611 54.8594C7.85644 54.864 9.06039 49.2059 6.49106 49.155Z" fill="white"/>
<path fill-rule="evenodd" clip-rule="evenodd" d="M16.5535 57.6861H23.7167L22.4724 16.2152H17.7911L16.5535 57.6861Z" fill="white"/>
<path fill-rule="evenodd" clip-rule="evenodd" d="M27.2882 11.9681C26.9141 9.30155 27.0862 6.61204 27.7994 3.97837C28.9226 0.0875742 27.4833 -2.10533 24.3557 2.92818L16.8629 15.0123C16.567 15.4749 16.076 15.6878 17.0714 16.6547C17.4369 16.9675 17.6697 17.3438 17.744 17.7419H22.5128C22.5128 17.196 23.4342 15.7433 25.1157 14.7717C26.1515 14.1703 27.3958 12.8194 27.2882 11.9681Z" fill="white"/>
<path d="M22.4675 4.00461L22.203 4.42996L24.2932 5.04497L24.5577 4.61962L22.4675 4.00461Z" fill="white"/>
<path fill-rule="evenodd" clip-rule="evenodd" d="M22.1698 4.91754L21.4433 4.70472C20.8716 4.35312 21.4433 3.45097 22.2034 3.48798L22.9231 3.7008C23.2392 3.97838 22.6742 4.88515 22.1698 4.91754Z" fill="white"/>
<path d="M21.2531 5.95786L20.9885 6.38318L23.0785 6.99844L23.3431 6.57312L21.2531 5.95786Z" fill="white"/>
<path fill-rule="evenodd" clip-rule="evenodd" d="M20.9523 6.87453L20.2259 6.65708C19.6542 6.30548 20.2259 5.40333 20.986 5.44035L21.746 5.66704C22.0218 5.93074 21.4568 6.83751 20.9523 6.87453Z" fill="white"/>
<path d="M20.0405 7.91203L19.7758 8.33733L21.8657 8.95284L22.1304 8.52755L20.0405 7.91203Z" fill="white"/>
<path fill-rule="evenodd" clip-rule="evenodd" d="M19.7282 8.8268L19.0085 8.61398C18.4368 8.26238 19.0085 7.35561 19.7618 7.39725L20.4882 7.61006C20.8111 7.88302 20.2461 8.78979 19.7282 8.8268Z" fill="white"/>
<path d="M18.8172 9.86297L18.5528 10.2884L20.6431 10.9031L20.9076 10.4777L18.8172 9.86297Z" fill="white"/>
<path fill-rule="evenodd" clip-rule="evenodd" d="M18.5242 10.7791L17.7978 10.5663C17.2261 10.2147 17.7978 9.30794 18.5579 9.34958L19.2776 9.56239C19.5937 9.83072 19.0556 10.756 18.5242 10.7791Z" fill="white"/>
<path d="M17.614 11.8143L17.3493 12.2396L19.4393 12.8549L19.704 12.4296L17.614 11.8143Z" fill="white"/>
<path fill-rule="evenodd" clip-rule="evenodd" d="M17.3068 12.7315L16.5804 12.5187C16.0087 12.1671 16.5804 11.2603 17.3405 11.3019L18.0669 11.5147C18.383 11.7877 17.8113 12.6991 17.3068 12.7315Z" fill="white"/>
<path d="M16.3948 13.7687L16.1302 14.194L18.2202 14.8093L18.4849 14.3839L16.3948 13.7687Z" fill="white"/>
<path fill-rule="evenodd" clip-rule="evenodd" d="M16.0962 14.6839L15.3698 14.4572C14.798 14.1056 15.3698 13.1988 16.1231 13.2404L16.8495 13.4532C17.1656 13.7447 16.6006 14.6515 16.0962 14.6839Z" fill="white"/>
</svg>
